<?xml version="1.0" encoding="utf-8"?>
<!-- Generator: Adobe Illustrator 28.0.0, SVG Export Plug-In . SVG Version: 6.00 Build 0)  -->
<svg version="1.1" id="Layer_1" xmlns="http://www.w3.org/2000/svg" xmlns:xlink="http://www.w3.org/1999/xlink" x="0px" y="0px"
	 viewBox="0 0 595.28 723.59" style="enable-background:new 0 0 595.28 723.59;" xml:space="preserve">
<style type="text/css">
	.st0{fill:#7EBCC0;}
</style>
<g>
	<path class="st0" d="M297.52,38.67h-0.54c-3.45,0.03-6.8,0.5-10.03,1.31c-3.33,0.41-6.44,1.34-9.76,3.36
		c-3.15,1.92-6.01,4.28-8.64,6.89c-1.37,1.3-2.67,2.69-3.83,4.18c-0.04,0.04-0.09,0.07-0.1,0.12c-6.18,7.4-9.89,16.71-9.89,26.39
		c0,0.63,0.01,1.24,0.04,1.86c0.49,10.3,5.17,19.92,12.31,27.26c4.37,4.49,9.87,8.67,15.73,11.01c3.29,1.33,6.41,1.11,9.73,0.99
		c1.6,0.19,3.23,0.29,4.88,0.29c1.37,0,2.71-0.06,4.05-0.2c7.94,0.35,15.73,1.33,23.3,2.88c20.77,4.28,39.94,12.93,56.49,24.98
		c0.8,0.57,1.6,1.17,2.39,1.78c0.8,0.58,1.59,1.19,2.36,1.81c1.01,0.79,2,1.59,2.97,2.39c32.46,27,53.13,67.71,53.13,113.25
		c0,40.49-16.36,77.19-42.82,103.8c-0.93,0.93-1.88,1.85-2.84,2.77c-0.83,0.79-1.66,1.56-2.51,2.33
		c-26.14,23.81-60.92,38.33-99.07,38.33c-2.08,0-4.16-0.04-6.24-0.13c-2.06-0.09-4.12-0.21-6.18-0.39
		c-2.04-0.17-4.07-0.38-6.11-0.64c-2.02-0.25-4.03-0.55-6.03-0.88c-1.99-0.33-3.97-0.71-5.95-1.12c-1.96-0.41-3.92-0.87-5.86-1.36
		c-1.93-0.49-3.86-1.02-5.77-1.59c-1.9-0.57-3.79-1.17-5.67-1.82c-1.87-0.64-3.73-1.32-5.57-2.04c-1.84-0.71-3.66-1.46-5.46-2.25
		c-1.8-0.78-3.58-1.61-5.35-2.46c-1.76-0.85-3.5-1.74-5.23-2.67c-1.72-0.92-3.42-1.88-5.11-2.87c-1.68-0.99-3.34-2.01-4.98-3.06
		c-1.64-1.05-3.25-2.14-4.84-3.25c-1.59-1.11-3.16-2.26-4.71-3.44c-1.54-1.17-3.07-2.38-4.56-3.61c-1.5-1.23-2.97-2.5-4.41-3.79
		c-1.28-1.14-2.54-2.31-3.78-3.49c-0.76-0.72-1.44-1.52-2.04-2.38c-0.18-0.25-0.35-0.5-0.53-0.75c-0.7-0.96-1.42-1.91-2.17-2.84
		c-0.01-0.02-0.03-0.04-0.04-0.06c-1.49-1.84-3.06-3.58-4.72-5.26c-12.67-12.83-30.28-20.77-49.74-20.77
		c-13.12,0-25.4,3.61-35.9,9.92c-4.27,2.39-8.27,5.23-11.9,8.52c-2.85,2.55-5.48,5.37-7.82,8.45c-1.91,2.51-3.63,5.16-5.13,7.92
		c-1.69,3.12-3.7,7.09-4.94,11.03c-0.01,0.01-0.73,2.94-1.58,6.4c-1.79,7.29-2.7,14.77-2.7,22.27v242.91v0.22
		c1.24,11.86,7.53,22.07,16.43,29.04c7.34,6.77,17.17,10.89,27.98,10.89c22.28,0,40.44-17.58,41.22-39.57
		c0.01-0.01,0.01-0.03,0-0.04c0.03-0.19,0.06-0.39,0.07-0.58c0.16-1.47,0.23-2.96,0.23-4.47c0-1.51,0-3.12,0-4.56l-0.23-186.76
		c0-1.69,0.15-4.45,0.4-6.12c0.07-0.45,0.16-0.9,0.29-1.34c0.38-1.24,1.19-1.78,2.29-2.37c1.92-1.03,4.08-0.73,5.97,0.2
		c0.48,0.23,0.92,0.49,1.39,0.79c1.09,0.7,2.12,1.49,3.11,2.33c0.12,0.11,0.25,0.21,0.37,0.31c0.1,0.09,0.22,0.16,0.32,0.25
		c0.19,0.17,0.39,0.33,0.6,0.48c0.42,0.32,0.87,0.6,1.31,0.87c0.04,0.03,0.09,0.06,0.12,0.07c0.32,0.22,0.64,0.42,0.96,0.63
		c1.06,0.7,2.13,1.38,3.19,2.07c2.56,1.65,5.17,3.23,7.81,4.76c0.41,0.25,0.83,0.5,1.24,0.73c3.07,1.76,6.18,3.45,9.32,5.07
		c2.18,1.14,4.38,2.21,6.6,3.26c0.99,0.47,1.98,0.93,2.97,1.38c3.23,1.49,6.51,2.9,9.8,4.22c3.32,1.33,6.67,2.58,10.05,3.76
		c3.38,1.18,6.8,2.29,10.25,3.31c3.45,1.02,6.95,1.97,10.46,2.83c3.52,0.87,7.08,1.65,10.65,2.34c3.6,0.7,7.19,1.31,10.82,1.84
		c3.66,0.54,7.33,0.98,11,1.34c1.82,0.17,3.64,0.33,5.48,0.45c0.17,0.03,0.33,0.04,0.51,0.04c6.64,0.58,13.36,0.87,20.14,0.87
		c127.26,0,230.43-103.16,230.43-230.42C527.41,142.01,424.53,38.97,297.52,38.67z"/>
	<path class="st0" d="M203.29,86.35c1.39,27.37-21.1,49.86-48.47,48.47c-23.42-1.19-42.44-20.23-43.63-43.65
		c-1.39-27.37,21.07-49.84,48.45-48.44C183.07,43.91,202.1,62.93,203.29,86.35z"/>
</g>
</svg>
